/* XPM */
static char * MiniPrincess_xpm[] = {
"120 120 9 1",
" 	c #C0EB70",
".	c #F0E830",
"+	c #B8B028",
"@	c #C88850",
"#	c #F8C090",
"$	c #2B2928",
"%	c #6098E8",
"&	c #98D8F8",
"*	c #4058C0",
"                                    ........................++++++++++++........................                        ",
"                                    ........................++++++++++++........................                        ",
"                                    ........................++++++++++++........................                        ",
"                                    ........................++++++++++++........................                        ",
"                                    ........................++++++++++++........................                        ",
"                                    ........................++++++++++++........................                        ",
"                                    ........................++++++++++++........................                        ",
"                                    ........................++++++++++++........................                        ",
"                        ............++++++++++++........................++++++++++++........................            ",
"                        ............++++++++++++........................++++++++++++........................            ",
"                        ............++++++++++++........................++++++++++++........................            ",
"                        ............++++++++++++........................++++++++++++........................            ",
"                        ............++++++++++++........................++++++++++++........................            ",
"                        ............++++++++++++........................++++++++++++........................            ",
"                        ............++++++++++++........................++++++++++++........................            ",
"                        ............++++++++++++........................++++++++++++........................            ",
"                        ............++++++++++++........................++++++++++++........................            ",
"                        ++++++++++++....................................@@@@@@@@@@@@........................            ",
"                        ++++++++++++....................................@@@@@@@@@@@@........................            ",
"                        ++++++++++++....................................@@@@@@@@@@@@........................            ",
"                        ++++++++++++....................................@@@@@@@@@@@@........................            ",
"                        ++++++++++++....................................@@@@@@@@@@@@........................            ",
"                        ++++++++++++....................................@@@@@@@@@@@@........................            ",
"                        ++++++++++++....................................@@@@@@@@@@@@........................            ",
"                        ++++++++++++....................................@@@@@@@@@@@@........................            ",
"                        ++++++++++++....................................@@@@@@@@@@@@........................            ",
"            ++++++++++++........................++++++++++++@@@@@@@@@@@@############@@@@@@@@@@@@............            ",
"            ++++++++++++........................++++++++++++@@@@@@@@@@@@############@@@@@@@@@@@@............            ",
"            ++++++++++++........................++++++++++++@@@@@@@@@@@@############@@@@@@@@@@@@............            ",
"            ++++++++++++........................++++++++++++@@@@@@@@@@@@############@@@@@@@@@@@@............            ",
"            ++++++++++++........................++++++++++++@@@@@@@@@@@@############@@@@@@@@@@@@............            ",
"            ++++++++++++........................++++++++++++@@@@@@@@@@@@############@@@@@@@@@@@@............            ",
"            ++++++++++++........................++++++++++++@@@@@@@@@@@@############@@@@@@@@@@@@............            ",
"            ++++++++++++........................++++++++++++@@@@@@@@@@@@############@@@@@@@@@@@@............            ",
"            ++++++++++++............++++++++++++$$$$$$$$$$$$########################$$$$$$$$$$$$++++++++++++            ",
"            ++++++++++++............++++++++++++$$$$$$$$$$$$########################$$$$$$$$$$$$++++++++++++            ",
"            ++++++++++++............++++++++++++$$$$$$$$$$$$########################$$$$$$$$$$$$++++++++++++            ",
"            ++++++++++++............++++++++++++$$$$$$$$$$$$########################$$$$$$$$$$$$++++++++++++            ",
"            ++++++++++++............++++++++++++$$$$$$$$$$$$########################$$$$$$$$$$$$++++++++++++            ",
"            ++++++++++++............++++++++++++$$$$$$$$$$$$########################$$$$$$$$$$$$++++++++++++            ",
"            ++++++++++++............++++++++++++$$$$$$$$$$$$########################$$$$$$$$$$$$++++++++++++            ",
"            ++++++++++++............++++++++++++$$$$$$$$$$$$########################$$$$$$$$$$$$++++++++++++            ",
"            ++++++++++++............++++++++++++$$$$$$$$$$$$########################$$$$$$$$$$$$++++++++++++            ",
"            ++++++++++++++++++++++++++++++++++++################################################++++++++++++            ",
"            ++++++++++++++++++++++++++++++++++++################################################++++++++++++            ",
"            ++++++++++++++++++++++++++++++++++++################################################++++++++++++            ",
"            ++++++++++++++++++++++++++++++++++++################################################++++++++++++            ",
"            ++++++++++++++++++++++++++++++++++++################################################++++++++++++            ",
"            ++++++++++++++++++++++++++++++++++++################################################++++++++++++            ",
"            ++++++++++++++++++++++++++++++++++++################################################++++++++++++            ",
"            ++++++++++++++++++++++++++++++++++++################################################++++++++++++            ",
"                        ++++++++++++++++++++++++####################################++++++++++++                        ",
"                        ++++++++++++++++++++++++####################################++++++++++++                        ",
"                        ++++++++++++++++++++++++####################################++++++++++++                        ",
"                        ++++++++++++++++++++++++####################################++++++++++++                        ",
"                        ++++++++++++++++++++++++####################################++++++++++++                        ",
"                        ++++++++++++++++++++++++####################################++++++++++++                        ",
"                        ++++++++++++++++++++++++####################################++++++++++++                        ",
"                        ++++++++++++++++++++++++####################################++++++++++++                        ",
"                        ++++++++++++++++++++++++####################################++++++++++++                        ",
"                                    %%%%%%%%%%%%&&&&&&&&&&&&@@@@@@@@@@@@&&&&&&&&&&&&                                    ",
"                                    %%%%%%%%%%%%&&&&&&&&&&&&@@@@@@@@@@@@&&&&&&&&&&&&                                    ",
"                                    %%%%%%%%%%%%&&&&&&&&&&&&@@@@@@@@@@@@&&&&&&&&&&&&                                    ",
"                                    %%%%%%%%%%%%&&&&&&&&&&&&@@@@@@@@@@@@&&&&&&&&&&&&                                    ",
"                                    %%%%%%%%%%%%&&&&&&&&&&&&@@@@@@@@@@@@&&&&&&&&&&&&                                    ",
"                                    %%%%%%%%%%%%&&&&&&&&&&&&@@@@@@@@@@@@&&&&&&&&&&&&                                    ",
"                                    %%%%%%%%%%%%&&&&&&&&&&&&@@@@@@@@@@@@&&&&&&&&&&&&                                    ",
"                                    %%%%%%%%%%%%&&&&&&&&&&&&@@@@@@@@@@@@&&&&&&&&&&&&                                    ",
"                        %%%%%%%%%%%%************%%%%%%%%%%%%&&&&&&&&&&&&%%%%%%%%%%%%%%%%%%%%%%%%                        ",
"                        %%%%%%%%%%%%************%%%%%%%%%%%%&&&&&&&&&&&&%%%%%%%%%%%%%%%%%%%%%%%%                        ",
"                        %%%%%%%%%%%%************%%%%%%%%%%%%&&&&&&&&&&&&%%%%%%%%%%%%%%%%%%%%%%%%                        ",
"                        %%%%%%%%%%%%************%%%%%%%%%%%%&&&&&&&&&&&&%%%%%%%%%%%%%%%%%%%%%%%%                        ",
"                        %%%%%%%%%%%%************%%%%%%%%%%%%&&&&&&&&&&&&%%%%%%%%%%%%%%%%%%%%%%%%                        ",
"                        %%%%%%%%%%%%************%%%%%%%%%%%%&&&&&&&&&&&&%%%%%%%%%%%%%%%%%%%%%%%%                        ",
"                        %%%%%%%%%%%%************%%%%%%%%%%%%&&&&&&&&&&&&%%%%%%%%%%%%%%%%%%%%%%%%                        ",
"                        %%%%%%%%%%%%************%%%%%%%%%%%%&&&&&&&&&&&&%%%%%%%%%%%%%%%%%%%%%%%%                        ",
"                        %%%%%%%%%%%%************%%%%%%%%%%%%&&&&&&&&&&&&%%%%%%%%%%%%%%%%%%%%%%%%                        ",
"&&&&&&&&&&&&&&&&&&&&&&&&            ************************%%%%%%%%%%%%************            &&&&&&&&&&&&&&&&&&&&&&&&",
"&&&&&&&&&&&&&&&&&&&&&&&&            ************************%%%%%%%%%%%%************            &&&&&&&&&&&&&&&&&&&&&&&&",
"&&&&&&&&&&&&&&&&&&&&&&&&            ************************%%%%%%%%%%%%************            &&&&&&&&&&&&&&&&&&&&&&&&",
"&&&&&&&&&&&&&&&&&&&&&&&&            ************************%%%%%%%%%%%%************            &&&&&&&&&&&&&&&&&&&&&&&&",
"&&&&&&&&&&&&&&&&&&&&&&&&            ************************%%%%%%%%%%%%************            &&&&&&&&&&&&&&&&&&&&&&&&",
"&&&&&&&&&&&&&&&&&&&&&&&&            ************************%%%%%%%%%%%%************            &&&&&&&&&&&&&&&&&&&&&&&&",
"&&&&&&&&&&&&&&&&&&&&&&&&            ************************%%%%%%%%%%%%************            &&&&&&&&&&&&&&&&&&&&&&&&",
"&&&&&&&&&&&&&&&&&&&&&&&&            ************************%%%%%%%%%%%%************            &&&&&&&&&&&&&&&&&&&&&&&&",
"&&&&&&&&&&&&&&&&&&&&&&&&            ************************%%%%%%%%%%%%************            &&&&&&&&&&&&&&&&&&&&&&&&",
"############@@@@@@@@@@@@            ************************%%%%%%%%%%%%************            @@@@@@@@@@@@############",
"############@@@@@@@@@@@@            ************************%%%%%%%%%%%%************            @@@@@@@@@@@@############",
"############@@@@@@@@@@@@            ************************%%%%%%%%%%%%************            @@@@@@@@@@@@############",
"############@@@@@@@@@@@@            ************************%%%%%%%%%%%%************            @@@@@@@@@@@@############",
"############@@@@@@@@@@@@            ************************%%%%%%%%%%%%************            @@@@@@@@@@@@############",
"############@@@@@@@@@@@@            ************************%%%%%%%%%%%%************            @@@@@@@@@@@@############",
"############@@@@@@@@@@@@            ************************%%%%%%%%%%%%************            @@@@@@@@@@@@############",
"############@@@@@@@@@@@@            ************************%%%%%%%%%%%%************            @@@@@@@@@@@@############",
"                                    ************%%%%%%%%%%%%&&&&&&&&&&&&%%%%%%%%%%%%                                    ",
"                                    ************%%%%%%%%%%%%&&&&&&&&&&&&%%%%%%%%%%%%                                    ",
"                                    ************%%%%%%%%%%%%&&&&&&&&&&&&%%%%%%%%%%%%                                    ",
"                                    ************%%%%%%%%%%%%&&&&&&&&&&&&%%%%%%%%%%%%                                    ",
"                                    ************%%%%%%%%%%%%&&&&&&&&&&&&%%%%%%%%%%%%                                    ",
"                                    ************%%%%%%%%%%%%&&&&&&&&&&&&%%%%%%%%%%%%                                    ",
"                                    ************%%%%%%%%%%%%&&&&&&&&&&&&%%%%%%%%%%%%                                    ",
"                                    ************%%%%%%%%%%%%&&&&&&&&&&&&%%%%%%%%%%%%                                    ",
"                                    ************%%%%%%%%%%%%&&&&&&&&&&&&%%%%%%%%%%%%                                    ",
"                        ************%%%%%%%%%%%%%%%%%%%%%%%%&&&&&&&&&&&&%%%%%%%%%%%%************                        ",
"                        ************%%%%%%%%%%%%%%%%%%%%%%%%&&&&&&&&&&&&%%%%%%%%%%%%************                        ",
"                        ************%%%%%%%%%%%%%%%%%%%%%%%%&&&&&&&&&&&&%%%%%%%%%%%%************                        ",
"                        ************%%%%%%%%%%%%%%%%%%%%%%%%&&&&&&&&&&&&%%%%%%%%%%%%************                        ",
"                        ************%%%%%%%%%%%%%%%%%%%%%%%%&&&&&&&&&&&&%%%%%%%%%%%%************                        ",
"                        ************%%%%%%%%%%%%%%%%%%%%%%%%&&&&&&&&&&&&%%%%%%%%%%%%************                        ",
"                        ************%%%%%%%%%%%%%%%%%%%%%%%%&&&&&&&&&&&&%%%%%%%%%%%%************                        ",
"                        ************%%%%%%%%%%%%%%%%%%%%%%%%&&&&&&&&&&&&%%%%%%%%%%%%************                        ",
"                        ************%%%%%%%%%%%%%%%%%%%%%%%%&&&&&&&&&&&&%%%%%%%%%%%%%%%%%%%%%%%%                        ",
"                        ************%%%%%%%%%%%%%%%%%%%%%%%%&&&&&&&&&&&&%%%%%%%%%%%%%%%%%%%%%%%%                        ",
"                        ************%%%%%%%%%%%%%%%%%%%%%%%%&&&&&&&&&&&&%%%%%%%%%%%%%%%%%%%%%%%%                        ",
"                        ************%%%%%%%%%%%%%%%%%%%%%%%%&&&&&&&&&&&&%%%%%%%%%%%%%%%%%%%%%%%%                        ",
"                        ************%%%%%%%%%%%%%%%%%%%%%%%%&&&&&&&&&&&&%%%%%%%%%%%%%%%%%%%%%%%%                        ",
"                        ************%%%%%%%%%%%%%%%%%%%%%%%%&&&&&&&&&&&&%%%%%%%%%%%%%%%%%%%%%%%%                        ",
"                        ************%%%%%%%%%%%%%%%%%%%%%%%%&&&&&&&&&&&&%%%%%%%%%%%%%%%%%%%%%%%%                        ",
"                        ************%%%%%%%%%%%%%%%%%%%%%%%%&&&&&&&&&&&&%%%%%%%%%%%%%%%%%%%%%%%%                        ",
"                        ************%%%%%%%%%%%%%%%%%%%%%%%%&&&&&&&&&&&&%%%%%%%%%%%%%%%%%%%%%%%%                        "};
