/* XPM */
static char * Item__33_xpm[] = {
"120 120 6 1",
" 	c #C0EB70",
".	c #000000",
"+	c #D9A066",
"@	c #EEC39A",
"#	c #8F563B",
"$	c #FBF236",
"                      .....................................................                                             ",
"                      .....................................................                                             ",
"                      .....................................................                                             ",
"                      .....................................................                                             ",
"                      .....................................................                                             ",
"                      .....................................................                                             ",
"                      .....................................................                                             ",
"               .......+++++++++++++++++++++++@@@@@@@@@@@@@@@@@@@@@@@@@@@@@@......................                       ",
"               .......+++++++++++++++++++++++@@@@@@@@@@@@@@@@@@@@@@@@@@@@@@......................                       ",
"               .......+++++++++++++++++++++++@@@@@@@@@@@@@@@@@@@@@@@@@@@@@@......................                       ",
"               .......+++++++++++++++++++++++@@@@@@@@@@@@@@@@@@@@@@@@@@@@@@......................                       ",
"               .......+++++++++++++++++++++++@@@@@@@@@@@@@@@@@@@@@@@@@@@@@@......................                       ",
"               .......+++++++++++++++++++++++@@@@@@@@@@@@@@@@@@@@@@@@@@@@@@......................                       ",
"               .......+++++++++++++++++++++++@@@@@@@@@@@@@@@@@@@@@@@@@@@@@@......................                       ",
"               .......+++++++++++++++++++++++@@@@@@@@@@@@@@@@@@@@@@@@@@@@@@......................                       ",
"       ........@@@@@@@.....................................................@@@@@@@@@@@@@@@@@@@@@@........               ",
"       ........@@@@@@@.....................................................@@@@@@@@@@@@@@@@@@@@@@........               ",
"       ........@@@@@@@.....................................................@@@@@@@@@@@@@@@@@@@@@@........               ",
"       ........@@@@@@@.....................................................@@@@@@@@@@@@@@@@@@@@@@........               ",
"       ........@@@@@@@.....................................................@@@@@@@@@@@@@@@@@@@@@@........               ",
"       ........@@@@@@@.....................................................@@@@@@@@@@@@@@@@@@@@@@........               ",
"       ........@@@@@@@.....................................................@@@@@@@@@@@@@@@@@@@@@@........               ",
".......@@@@@@@@.......                                                     ......................@@@@@@@@.......        ",
".......@@@@@@@@.......                                                     ......................@@@@@@@@.......        ",
".......@@@@@@@@.......                                                     ......................@@@@@@@@.......        ",
".......@@@@@@@@.......                                                     ......................@@@@@@@@.......        ",
".......@@@@@@@@.......                                                     ......................@@@@@@@@.......        ",
".......@@@@@@@@.......                                                     ......................@@@@@@@@.......        ",
".......@@@@@@@@.......                                                     ......................@@@@@@@@.......        ",
".......@@@@@@@@.......                                                     ......................@@@@@@@@.......        ",
".......@@@@@@@@.......                                                                           ........@@@@@@@........",
".......@@@@@@@@.......                                                                           ........@@@@@@@........",
".......@@@@@@@@.......                                                                           ........@@@@@@@........",
".......@@@@@@@@.......                                                                           ........@@@@@@@........",
".......@@@@@@@@.......                                                                           ........@@@@@@@........",
".......@@@@@@@@.......                                                                           ........@@@@@@@........",
".......@@@@@@@@.......                                                                           ........@@@@@@@........",
"       ........@@@@@@@........                                                                   ........@@@@@@@........",
"       ........@@@@@@@........                                                                   ........@@@@@@@........",
"       ........@@@@@@@........                                                                   ........@@@@@@@........",
"       ........@@@@@@@........                                                                   ........@@@@@@@........",
"       ........@@@@@@@........                                                                   ........@@@@@@@........",
"       ........@@@@@@@........                                                                   ........@@@@@@@........",
"       ........@@@@@@@........                                                                   ........@@@@@@@........",
"       ........@@@@@@@........                                                                   ........@@@@@@@........",
"               .......++++++++.......                                                     .......@@@@@@@@.......        ",
"               .......++++++++.......                                                     .......@@@@@@@@.......        ",
"               .......++++++++.......                                                     .......@@@@@@@@.......        ",
"               .......++++++++.......                                                     .......@@@@@@@@.......        ",
"               .......++++++++.......                                                     .......@@@@@@@@.......        ",
"               .......++++++++.......                                                     .......@@@@@@@@.......        ",
"               .......++++++++.......                                                     .......@@@@@@@@.......        ",
"                      ........#######........       ........       .......................@@@@@@@........               ",
"                      ........#######........       ........       .......................@@@@@@@........               ",
"                      ........#######........       ........       .......................@@@@@@@........               ",
"                      ........#######........       ........       .......................@@@@@@@........               ",
"                      ........#######........       ........       .......................@@@@@@@........               ",
"                      ........#######........       ........       .......................@@@@@@@........               ",
"                      ........#######........       ........       .......................@@@@@@@........               ",
"                      ........#######........       ........       .......................@@@@@@@........               ",
"                              .......########.......$$$$$$$$.......###############++++++++.......                       ",
"                              .......########.......$$$$$$$$.......###############++++++++.......                       ",
"                              .......########.......$$$$$$$$.......###############++++++++.......                       ",
"                              .......########.......$$$$$$$$.......###############++++++++.......                       ",
"                              .......########.......$$$$$$$$.......###############++++++++.......                       ",
"                              .......########.......$$$$$$$$.......###############++++++++.......                       ",
"                              .......########.......$$$$$$$$.......###############++++++++.......                       ",
"                      .......................@@@@@@@$$$$$$$$$$$$$$$.......................                              ",
"                      .......................@@@@@@@$$$$$$$$$$$$$$$.......................                              ",
"                      .......................@@@@@@@$$$$$$$$$$$$$$$.......................                              ",
"                      .......................@@@@@@@$$$$$$$$$$$$$$$.......................                              ",
"                      .......................@@@@@@@$$$$$$$$$$$$$$$.......................                              ",
"                      .......................@@@@@@@$$$$$$$$$$$$$$$.......................                              ",
"                      .......................@@@@@@@$$$$$$$$$$$$$$$.......................                              ",
"                      .......................@@@@@@@$$$$$$$$$$$$$$$.......................                              ",
"               .......@@@@@@@@$$$$$$$$$$$$$$$@@@@@@@$$$$$$$$$$$$$$$$$$$$$$$$$$$$$$$$$$$$$$.......                       ",
"               .......@@@@@@@@$$$$$$$$$$$$$$$@@@@@@@$$$$$$$$$$$$$$$$$$$$$$$$$$$$$$$$$$$$$$.......                       ",
"               .......@@@@@@@@$$$$$$$$$$$$$$$@@@@@@@$$$$$$$$$$$$$$$$$$$$$$$$$$$$$$$$$$$$$$.......                       ",
"               .......@@@@@@@@$$$$$$$$$$$$$$$@@@@@@@$$$$$$$$$$$$$$$$$$$$$$$$$$$$$$$$$$$$$$.......                       ",
"               .......@@@@@@@@$$$$$$$$$$$$$$$@@@@@@@$$$$$$$$$$$$$$$$$$$$$$$$$$$$$$$$$$$$$$.......                       ",
"               .......@@@@@@@@$$$$$$$$$$$$$$$@@@@@@@$$$$$$$$$$$$$$$$$$$$$$$$$$$$$$$$$$$$$$.......                       ",
"               .......@@@@@@@@$$$$$$$$$$$$$$$@@@@@@@$$$$$$$$$$$$$$$$$$$$$$$$$$$$$$$$$$$$$$.......                       ",
"                      ........+++++++@@@@@@@@@@@@@@@@@@@@@@@$$$$$$$@@@@@@@@@@@@@@@........                              ",
"                      ........+++++++@@@@@@@@@@@@@@@@@@@@@@@$$$$$$$@@@@@@@@@@@@@@@........                              ",
"                      ........+++++++@@@@@@@@@@@@@@@@@@@@@@@$$$$$$$@@@@@@@@@@@@@@@........                              ",
"                      ........+++++++@@@@@@@@@@@@@@@@@@@@@@@$$$$$$$@@@@@@@@@@@@@@@........                              ",
"                      ........+++++++@@@@@@@@@@@@@@@@@@@@@@@$$$$$$$@@@@@@@@@@@@@@@........                              ",
"                      ........+++++++@@@@@@@@@@@@@@@@@@@@@@@$$$$$$$@@@@@@@@@@@@@@@........                              ",
"                      ........+++++++@@@@@@@@@@@@@@@@@@@@@@@$$$$$$$@@@@@@@@@@@@@@@........                              ",
"                      ........+++++++@@@@@@@@@@@@@@@@@@@@@@@$$$$$$$@@@@@@@@@@@@@@@........                              ",
"                              .......++++++++@@@@@@@++++++++@@@@@@@$$$$$$$$.......                                      ",
"                              .......++++++++@@@@@@@++++++++@@@@@@@$$$$$$$$.......                                      ",
"                              .......++++++++@@@@@@@++++++++@@@@@@@$$$$$$$$.......                                      ",
"                              .......++++++++@@@@@@@++++++++@@@@@@@$$$$$$$$.......                                      ",
"                              .......++++++++@@@@@@@++++++++@@@@@@@$$$$$$$$.......                                      ",
"                              .......++++++++@@@@@@@++++++++@@@@@@@$$$$$$$$.......                                      ",
"                              .......++++++++@@@@@@@++++++++@@@@@@@$$$$$$$$.......                                      ",
"                      ........@@@@@@@@@@@@@@@+++++++........+++++++@@@@@@@@$$$$$$$........                              ",
"                      ........@@@@@@@@@@@@@@@+++++++........+++++++@@@@@@@@$$$$$$$........                              ",
"                      ........@@@@@@@@@@@@@@@+++++++........+++++++@@@@@@@@$$$$$$$........                              ",
"                      ........@@@@@@@@@@@@@@@+++++++........+++++++@@@@@@@@$$$$$$$........                              ",
"                      ........@@@@@@@@@@@@@@@+++++++........+++++++@@@@@@@@$$$$$$$........                              ",
"                      ........@@@@@@@@@@@@@@@+++++++........+++++++@@@@@@@@$$$$$$$........                              ",
"                      ........@@@@@@@@@@@@@@@+++++++........+++++++@@@@@@@@$$$$$$$........                              ",
"                      ........@@@@@@@@@@@@@@@+++++++........+++++++@@@@@@@@$$$$$$$........                              ",
"                      ........+++++++++++++++.......        .......@@@@@@@@@@@@@@@........                              ",
"                      ........+++++++++++++++.......        .......@@@@@@@@@@@@@@@........                              ",
"                      ........+++++++++++++++.......        .......@@@@@@@@@@@@@@@........                              ",
"                      ........+++++++++++++++.......        .......@@@@@@@@@@@@@@@........                              ",
"                      ........+++++++++++++++.......        .......@@@@@@@@@@@@@@@........                              ",
"                      ........+++++++++++++++.......        .......@@@@@@@@@@@@@@@........                              ",
"                      ........+++++++++++++++.......        .......@@@@@@@@@@@@@@@........                              ",
"                      .......................                      .......................                              ",
"                      .......................                      .......................                              ",
"                      .......................                      .......................                              ",
"                      .......................                      .......................                              ",
"                      .......................                      .......................                              ",
"                      .......................                      .......................                              ",
"                      .......................                      .......................                              ",
"                      .......................                      .......................                              "};
