/* XPM */
static char * 26_xpm[] = {
"120 120 10 1",
" 	c #C0EB70",
".	c #302C2E",
"+	c #B32D2D",
"@	c #73342E",
"#	c #F4B41B",
"$	c #F47E1B",
"%	c #EEF2AA",
"&	c #E6482E",
"*	c #4D2E37",
"=	c #A24C06",
"                                                                                                                        ",
"                                                                                                                        ",
"                                                                                                                        ",
"                                                                                                                        ",
"                                                                                                                        ",
"                                                                                                                        ",
"                                                                                                                        ",
"                              ............................................................                              ",
"                              ............................................................                              ",
"                              ............................................................                              ",
"                              ............................................................                              ",
"                              ............................................................                              ",
"                              ............................................................                              ",
"               ...............+++++++++++++++@@@@@@@###############@@@@@@@@+++++++++++++++...............               ",
"               ...............+++++++++++++++@@@@@@@###############@@@@@@@@+++++++++++++++...............               ",
"               ...............+++++++++++++++@@@@@@@###############@@@@@@@@+++++++++++++++...............               ",
"               ...............+++++++++++++++@@@@@@@###############@@@@@@@@+++++++++++++++...............               ",
"               ...............+++++++++++++++@@@@@@@###############@@@@@@@@+++++++++++++++...............               ",
"               ...............+++++++++++++++@@@@@@@###############@@@@@@@@+++++++++++++++...............               ",
"               ...............+++++++++++++++@@@@@@@###############@@@@@@@@+++++++++++++++...............               ",
"       ........$$$$$$$+++++++++++++++++++++++@@@@@@@%%%%%%%%%%%%%%%@@@@@@@@++++++++++++++++++++++$$$$$$$$.......        ",
"       ........$$$$$$$+++++++++++++++++++++++@@@@@@@%%%%%%%%%%%%%%%@@@@@@@@++++++++++++++++++++++$$$$$$$$.......        ",
"       ........$$$$$$$+++++++++++++++++++++++@@@@@@@%%%%%%%%%%%%%%%@@@@@@@@++++++++++++++++++++++$$$$$$$$.......        ",
"       ........$$$$$$$+++++++++++++++++++++++@@@@@@@%%%%%%%%%%%%%%%@@@@@@@@++++++++++++++++++++++$$$$$$$$.......        ",
"       ........$$$$$$$+++++++++++++++++++++++@@@@@@@%%%%%%%%%%%%%%%@@@@@@@@++++++++++++++++++++++$$$$$$$$.......        ",
"       ........$$$$$$$+++++++++++++++++++++++@@@@@@@%%%%%%%%%%%%%%%@@@@@@@@++++++++++++++++++++++$$$$$$$$.......        ",
"       ........$$$$$$$+++++++++++++++++++++++@@@@@@@%%%%%%%%%%%%%%%@@@@@@@@++++++++++++++++++++++$$$$$$$$.......        ",
"       ........&&&&&&&@@@@@@@@@@@@@@@@@@@@@@@%%%%%%%...............########@@@@@@@@@@@@@@@@@@@@@@&&&&&&&&.......        ",
"       ........&&&&&&&@@@@@@@@@@@@@@@@@@@@@@@%%%%%%%...............########@@@@@@@@@@@@@@@@@@@@@@&&&&&&&&.......        ",
"       ........&&&&&&&@@@@@@@@@@@@@@@@@@@@@@@%%%%%%%...............########@@@@@@@@@@@@@@@@@@@@@@&&&&&&&&.......        ",
"       ........&&&&&&&@@@@@@@@@@@@@@@@@@@@@@@%%%%%%%...............########@@@@@@@@@@@@@@@@@@@@@@&&&&&&&&.......        ",
"       ........&&&&&&&@@@@@@@@@@@@@@@@@@@@@@@%%%%%%%...............########@@@@@@@@@@@@@@@@@@@@@@&&&&&&&&.......        ",
"       ........&&&&&&&@@@@@@@@@@@@@@@@@@@@@@@%%%%%%%...............########@@@@@@@@@@@@@@@@@@@@@@&&&&&&&&.......        ",
"       ......................................$$$$$$$...............$$$$$$$$.....................................        ",
"       ......................................$$$$$$$...............$$$$$$$$.....................................        ",
"       ......................................$$$$$$$...............$$$$$$$$.....................................        ",
"       ......................................$$$$$$$...............$$$$$$$$.....................................        ",
"       ......................................$$$$$$$...............$$$$$$$$.....................................        ",
"       ......................................$$$$$$$...............$$$$$$$$.....................................        ",
"       ......................................$$$$$$$...............$$$$$$$$.....................................        ",
"       ........*************************************===============**************************************.......        ",
"       ........*************************************===============**************************************.......        ",
"       ........*************************************===============**************************************.......        ",
"       ........*************************************===============**************************************.......        ",
"       ........*************************************===============**************************************.......        ",
"       ........*************************************===============**************************************.......        ",
"       ........*************************************===============**************************************.......        ",
"       ........******************************************************************************************.......        ",
"       ........******************************************************************************************.......        ",
"       ........******************************************************************************************.......        ",
"       ........******************************************************************************************.......        ",
"       ........******************************************************************************************.......        ",
"       ........******************************************************************************************.......        ",
"       ........*******@@@@@@@@@@@@@@@@@@@@@@@@@@@@@@@@@@@@@@@@@@@@@@@@@@@@@@@@@@@@@@@@@@@@@@@@@@@********.......        ",
"       ........*******@@@@@@@@@@@@@@@@@@@@@@@@@@@@@@@@@@@@@@@@@@@@@@@@@@@@@@@@@@@@@@@@@@@@@@@@@@@********.......        ",
"       ........*******@@@@@@@@@@@@@@@@@@@@@@@@@@@@@@@@@@@@@@@@@@@@@@@@@@@@@@@@@@@@@@@@@@@@@@@@@@@********.......        ",
"       ........*******@@@@@@@@@@@@@@@@@@@@@@@@@@@@@@@@@@@@@@@@@@@@@@@@@@@@@@@@@@@@@@@@@@@@@@@@@@@********.......        ",
"       ........*******@@@@@@@@@@@@@@@@@@@@@@@@@@@@@@@@@@@@@@@@@@@@@@@@@@@@@@@@@@@@@@@@@@@@@@@@@@@********.......        ",
"       ........*******@@@@@@@@@@@@@@@@@@@@@@@@@@@@@@@@@@@@@@@@@@@@@@@@@@@@@@@@@@@@@@@@@@@@@@@@@@@********.......        ",
"       ........*******@@@@@@@@@@@@@@@@@@@@@@@@@@@@@@@@@@@@@@@@@@@@@@@@@@@@@@@@@@@@@@@@@@@@@@@@@@@********.......        ",
"       ........+++++++@@@@@@@@@@@@@@@@@@@@@@@@@@@@@@@@@@@@@@@@@@@@@@@@@@@@@@@@@@@@@@@@@@@@@@@@@@@++++++++.......        ",
"       ........+++++++@@@@@@@@@@@@@@@@@@@@@@@@@@@@@@@@@@@@@@@@@@@@@@@@@@@@@@@@@@@@@@@@@@@@@@@@@@@++++++++.......        ",
"       ........+++++++@@@@@@@@@@@@@@@@@@@@@@@@@@@@@@@@@@@@@@@@@@@@@@@@@@@@@@@@@@@@@@@@@@@@@@@@@@@++++++++.......        ",
"       ........+++++++@@@@@@@@@@@@@@@@@@@@@@@@@@@@@@@@@@@@@@@@@@@@@@@@@@@@@@@@@@@@@@@@@@@@@@@@@@@++++++++.......        ",
"       ........+++++++@@@@@@@@@@@@@@@@@@@@@@@@@@@@@@@@@@@@@@@@@@@@@@@@@@@@@@@@@@@@@@@@@@@@@@@@@@@++++++++.......        ",
"       ........+++++++@@@@@@@@@@@@@@@@@@@@@@@@@@@@@@@@@@@@@@@@@@@@@@@@@@@@@@@@@@@@@@@@@@@@@@@@@@@++++++++.......        ",
"       ........+++++++@@@@@@@@@@@@@@@@@@@@@@@@@@@@@@@@@@@@@@@@@@@@@@@@@@@@@@@@@@@@@@@@@@@@@@@@@@@++++++++.......        ",
"       ........$$$$$$$@@@@@@@@@@@@@@@@@@@@@@@@@@@@@@@@@@@@@@@@@@@@@@@@@@@@@@@@@@@@@@@@@@@@@@@@@@@$$$$$$$$.......        ",
"       ........$$$$$$$@@@@@@@@@@@@@@@@@@@@@@@@@@@@@@@@@@@@@@@@@@@@@@@@@@@@@@@@@@@@@@@@@@@@@@@@@@@$$$$$$$$.......        ",
"       ........$$$$$$$@@@@@@@@@@@@@@@@@@@@@@@@@@@@@@@@@@@@@@@@@@@@@@@@@@@@@@@@@@@@@@@@@@@@@@@@@@@$$$$$$$$.......        ",
"       ........$$$$$$$@@@@@@@@@@@@@@@@@@@@@@@@@@@@@@@@@@@@@@@@@@@@@@@@@@@@@@@@@@@@@@@@@@@@@@@@@@@$$$$$$$$.......        ",
"       ........$$$$$$$@@@@@@@@@@@@@@@@@@@@@@@@@@@@@@@@@@@@@@@@@@@@@@@@@@@@@@@@@@@@@@@@@@@@@@@@@@@$$$$$$$$.......        ",
"       ........$$$$$$$@@@@@@@@@@@@@@@@@@@@@@@@@@@@@@@@@@@@@@@@@@@@@@@@@@@@@@@@@@@@@@@@@@@@@@@@@@@$$$$$$$$.......        ",
"       ........$$$$$$$@@@@@@@@@@@@@@@@@@@@@@@@@@@@@@@@@@@@@@@@@@@@@@@@@@@@@@@@@@@@@@@@@@@@@@@@@@@$$$$$$$$.......        ",
"       ........$$$$$$$@@@@@@@@@@@@@@@@@@@@@@@@@@@@@@@@@@@@@@@@@@@@@@@@@@@@@@@@@@@@@@@@@@@@@@@@@@@$$$$$$$$.......        ",
"       ........$$$$$$$@@@@@@@@@@@@@@@@@@@@@@@@@@@@@@@@@@@@@@@@@@@@@@@@@@@@@@@@@@@@@@@@@@@@@@@@@@@$$$$$$$$.......        ",
"       ........$$$$$$$@@@@@@@@@@@@@@@@@@@@@@@@@@@@@@@@@@@@@@@@@@@@@@@@@@@@@@@@@@@@@@@@@@@@@@@@@@@$$$$$$$$.......        ",
"       ........$$$$$$$@@@@@@@@@@@@@@@@@@@@@@@@@@@@@@@@@@@@@@@@@@@@@@@@@@@@@@@@@@@@@@@@@@@@@@@@@@@$$$$$$$$.......        ",
"       ........$$$$$$$@@@@@@@@@@@@@@@@@@@@@@@@@@@@@@@@@@@@@@@@@@@@@@@@@@@@@@@@@@@@@@@@@@@@@@@@@@@$$$$$$$$.......        ",
"       ........$$$$$$$@@@@@@@@@@@@@@@@@@@@@@@@@@@@@@@@@@@@@@@@@@@@@@@@@@@@@@@@@@@@@@@@@@@@@@@@@@@$$$$$$$$.......        ",
"       ........##########################################################################################.......        ",
"       ........##########################################################################################.......        ",
"       ........##########################################################################################.......        ",
"       ........##########################################################################################.......        ",
"       ........##########################################################################################.......        ",
"       ........##########################################################################################.......        ",
"       ........##########################################################################################.......        ",
"       ........@@@@@@@@@@@@@@@@@@@@@@@@@@@@@@@@@@@@@@@@@@@@@@@@@@@@@@@@@@@@@@@@@@@@@@@@@@@@@@@@@@@@@@@@@@.......        ",
"       ........@@@@@@@@@@@@@@@@@@@@@@@@@@@@@@@@@@@@@@@@@@@@@@@@@@@@@@@@@@@@@@@@@@@@@@@@@@@@@@@@@@@@@@@@@@.......        ",
"       ........@@@@@@@@@@@@@@@@@@@@@@@@@@@@@@@@@@@@@@@@@@@@@@@@@@@@@@@@@@@@@@@@@@@@@@@@@@@@@@@@@@@@@@@@@@.......        ",
"       ........@@@@@@@@@@@@@@@@@@@@@@@@@@@@@@@@@@@@@@@@@@@@@@@@@@@@@@@@@@@@@@@@@@@@@@@@@@@@@@@@@@@@@@@@@@.......        ",
"       ........@@@@@@@@@@@@@@@@@@@@@@@@@@@@@@@@@@@@@@@@@@@@@@@@@@@@@@@@@@@@@@@@@@@@@@@@@@@@@@@@@@@@@@@@@@.......        ",
"       ........@@@@@@@@@@@@@@@@@@@@@@@@@@@@@@@@@@@@@@@@@@@@@@@@@@@@@@@@@@@@@@@@@@@@@@@@@@@@@@@@@@@@@@@@@@.......        ",
"       ........@@@@@@@@@@@@@@@@@@@@@@@@@@@@@@@@@@@@@@@@@@@@@@@@@@@@@@@@@@@@@@@@@@@@@@@@@@@@@@@@@@@@@@@@@@.......        ",
"       ........@@@@@@@@@@@@@@@@@@@@@@@@@@@@@@@@@@@@@@@@@@@@@@@@@@@@@@@@@@@@@@@@@@@@@@@@@@@@@@@@@@@@@@@@@@.......        ",
"       ........@@@@@@@@@@@@@@@@@@@@@@@@@@@@@@@@@@@@@@@@@@@@@@@@@@@@@@@@@@@@@@@@@@@@@@@@@@@@@@@@@@@@@@@@@@.......        ",
"       ........@@@@@@@@@@@@@@@@@@@@@@@@@@@@@@@@@@@@@@@@@@@@@@@@@@@@@@@@@@@@@@@@@@@@@@@@@@@@@@@@@@@@@@@@@@.......        ",
"       ........@@@@@@@@@@@@@@@@@@@@@@@@@@@@@@@@@@@@@@@@@@@@@@@@@@@@@@@@@@@@@@@@@@@@@@@@@@@@@@@@@@@@@@@@@@.......        ",
"       ........@@@@@@@@@@@@@@@@@@@@@@@@@@@@@@@@@@@@@@@@@@@@@@@@@@@@@@@@@@@@@@@@@@@@@@@@@@@@@@@@@@@@@@@@@@.......        ",
"       ........@@@@@@@@@@@@@@@@@@@@@@@@@@@@@@@@@@@@@@@@@@@@@@@@@@@@@@@@@@@@@@@@@@@@@@@@@@@@@@@@@@@@@@@@@@.......        ",
"       ........$$$$$$$@@@@@@@@@@@@@@@@@@@@@@@@@@@@@@@@@@@@@@@@@@@@@@@@@@@@@@@@@@@@@@@@@@@@@@@@@@@$$$$$$$$.......        ",
"       ........$$$$$$$@@@@@@@@@@@@@@@@@@@@@@@@@@@@@@@@@@@@@@@@@@@@@@@@@@@@@@@@@@@@@@@@@@@@@@@@@@@$$$$$$$$.......        ",
"       ........$$$$$$$@@@@@@@@@@@@@@@@@@@@@@@@@@@@@@@@@@@@@@@@@@@@@@@@@@@@@@@@@@@@@@@@@@@@@@@@@@@$$$$$$$$.......        ",
"       ........$$$$$$$@@@@@@@@@@@@@@@@@@@@@@@@@@@@@@@@@@@@@@@@@@@@@@@@@@@@@@@@@@@@@@@@@@@@@@@@@@@$$$$$$$$.......        ",
"       ........$$$$$$$@@@@@@@@@@@@@@@@@@@@@@@@@@@@@@@@@@@@@@@@@@@@@@@@@@@@@@@@@@@@@@@@@@@@@@@@@@@$$$$$$$$.......        ",
"       ........$$$$$$$@@@@@@@@@@@@@@@@@@@@@@@@@@@@@@@@@@@@@@@@@@@@@@@@@@@@@@@@@@@@@@@@@@@@@@@@@@@$$$$$$$$.......        ",
"       ........$$$$$$$@@@@@@@@@@@@@@@@@@@@@@@@@@@@@@@@@@@@@@@@@@@@@@@@@@@@@@@@@@@@@@@@@@@@@@@@@@@$$$$$$$$.......        ",
"       ........#######$$$$$$$$@@@@@@@@@@@@@@@@@@@@@@@@@@@@@@@@@@@@@@@@@@@@@@@@@@@@@@@@@@@@$$$$$$$########.......        ",
"       ........#######$$$$$$$$@@@@@@@@@@@@@@@@@@@@@@@@@@@@@@@@@@@@@@@@@@@@@@@@@@@@@@@@@@@@$$$$$$$########.......        ",
"       ........#######$$$$$$$$@@@@@@@@@@@@@@@@@@@@@@@@@@@@@@@@@@@@@@@@@@@@@@@@@@@@@@@@@@@@$$$$$$$########.......        ",
"       ........#######$$$$$$$$@@@@@@@@@@@@@@@@@@@@@@@@@@@@@@@@@@@@@@@@@@@@@@@@@@@@@@@@@@@@$$$$$$$########.......        ",
"       ........#######$$$$$$$$@@@@@@@@@@@@@@@@@@@@@@@@@@@@@@@@@@@@@@@@@@@@@@@@@@@@@@@@@@@@$$$$$$$########.......        ",
"       ........#######$$$$$$$$@@@@@@@@@@@@@@@@@@@@@@@@@@@@@@@@@@@@@@@@@@@@@@@@@@@@@@@@@@@@$$$$$$$########.......        ",
"               ..........................................................................................               ",
"               ..........................................................................................               ",
"               ..........................................................................................               ",
"               ..........................................................................................               ",
"               ..........................................................................................               ",
"               ..........................................................................................               ",
"               ..........................................................................................               "};
