/* XPM */
static char * Tree_1_4_xpm[] = {
"120 120 10 1",
" 	c #C0EB70",
".	c #2B4132",
"+	c #258C3D",
"@	c #479D2E",
"#	c #245C39",
"$	c #304D2E",
"%	c #40221F",
"&	c #603E21",
"*	c #552E23",
"=	c #3C6730",
"                                                       ...................                                              ",
"                                                       ...................                                              ",
"                                              .........+++++++++++++++++++.......                                       ",
"                                              .........+++++++++++++++++++.......                                       ",
"                                              .........+++++++++++++++++++.......                                       ",
"                                          ....+++++@@@@@@@@@@@@@@@@@@@@@@@+++++++.......                                ",
"                                          ....+++++@@@@@@@@@@@@@@@@@@@@@@@+++++++.......                                ",
"                                       ...+++++++@@@@@@@@@@@@@@@@@@@@@@@@@@@@@@@@+++++++..                              ",
"                                       ...+++++++@@@@@@@@@@@@@@@@@@@@@@@@@@@@@@@@+++++++..                              ",
"                                       ...+++++++@@@@@@@@@@@@@@@@@@@@@@@@@@@@@@@@+++++++..                              ",
"                                   ....@@@+++++++++@@@@@@@@@@@@@@@@@@@@@@@@@@@++++++++++@@....                          ",
"                                   ....@@@+++++++++@@@@@@@@@@@@@@@@@@@@@@@@@@@++++++++++@@....                          ",
"                                ...@@@@@@@@@@@++++++++++++@@@@@@@@@@@@@++++++++++++++@@@@@@@@@...                       ",
"                                ...@@@@@@@@@@@++++++++++++@@@@@@@@@@@@@++++++++++++++@@@@@@@@@...                       ",
"                          ......@@@@@@@@@@@@@@@@@++++++++++++++++++++++++++++++++@@@@@@@@@@@@@@@@....                   ",
"                          ......@@@@@@@@@@@@@@@@@++++++++++++++++++++++++++++++++@@@@@@@@@@@@@@@@....                   ",
"                          ......@@@@@@@@@@@@@@@@@++++++++++++++++++++++++++++++++@@@@@@@@@@@@@@@@....                   ",
"                       ...++++++@@@@@@@@@@@@@@@@@@@@@@@+++++++++++++++++++@@@@@@@@@@@@@@@@@@@@@@@....                   ",
"                       ...++++++@@@@@@@@@@@@@@@@@@@@@@@+++++++++++++++++++@@@@@@@@@@@@@@@@@@@@@@@....                   ",
"                   ....@@@++++++@@@@@@@@@@@@@@@@@@@@@@@@@@@@@@@@@@@@@@@@@@@@@@@@@@@@@@@@@@@@@@@@@++++...                ",
"                   ....@@@++++++@@@@@@@@@@@@@@@@@@@@@@@@@@@@@@@@@@@@@@@@@@@@@@@@@@@@@@@@@@@@@@@@@++++...                ",
"                   ....@@@++++++@@@@@@@@@@@@@@@@@@@@@@@@@@@@@@@@@@@@@@@@@@@@@@@@@@@@@@@@@@@@@@@@@++++...                ",
"                ...@@@@@@@@@@@++@@@@@@@@@@@@@@@@@@@@@@@@@@@@@@@@@@@@@@@@@@@@@@@@@@@@@@@@@@@@@@@@@+++++++...             ",
"                ...@@@@@@@@@@@++@@@@@@@@@@@@@@@@@@@@@@@@@@@@@@@@@@@@@@@@@@@@@@@@@@@@@@@@@@@@@@@@@+++++++...             ",
"                ...@@@@@@@@@@@+++++@@@@@@@@@@@@@@@@@@@@@@@@@@@@@@@@@@@@@@@@@@@@@@@@@@@@@@@@@@@++++++++++...             ",
"                ...@@@@@@@@@@@+++++@@@@@@@@@@@@@@@@@@@@@@@@@@@@@@@@@@@@@@@@@@@@@@@@@@@@@@@@@@@++++++++++...             ",
"             ...@@@@@@@@@@@@@@@@+++++++@@@@@@@@@@@@@@@@@@@@@@@@@@@@@@@@@@@@@@@@@@@@@@@@@+++++++++@@@@++++++....         ",
"             ...@@@@@@@@@@@@@@@@+++++++@@@@@@@@@@@@@@@@@@@@@@@@@@@@@@@@@@@@@@@@@@@@@@@@@+++++++++@@@@++++++....         ",
"             ...@@@@@@@@@@@@@@@@+++++++@@@@@@@@@@@@@@@@@@@@@@@@@@@@@@@@@@@@@@@@@@@@@@@@@+++++++++@@@@++++++....         ",
"         ....@@@@@@@@@@@@@@@@@@@@@@+++++++@@@@@@@@@@@@@@@@@@@@@@@@@@@@@@@@@@@@@@@@@@@+++++++++@@@@@@@@@@+++....         ",
"         ....@@@@@@@@@@@@@@@@@@@@@@+++++++@@@@@@@@@@@@@@@@@@@@@@@@@@@@@@@@@@@@@@@@@@@+++++++++@@@@@@@@@@+++....         ",
"       ..++++@@@@@@@@@@@@@@@@@@@@@@@@@@@@@+++++++++@@@@@@@@@@@@@@@@@@@@@@@++++++++++++++++@@@@@@@@@@@@@@+++++++..       ",
"       ..++++@@@@@@@@@@@@@@@@@@@@@@@@@@@@@+++++++++@@@@@@@@@@@@@@@@@@@@@@@++++++++++++++++@@@@@@@@@@@@@@+++++++..       ",
"       ..++++@@@@@@@@@@@@@@@@@@@@@@@@@@@@@+++++++++@@@@@@@@@@@@@@@@@@@@@@@++++++++++++++++@@@@@@@@@@@@@@+++++++..       ",
"       ..+++++++@@@@@@@@@@@@@@@@@@@@@@@@@@@@@@@@@++++++++++++++++++++++++++++++++@@@@@@@@@@@@@@@@@@@@@@@+++++++++....   ",
"       ..+++++++@@@@@@@@@@@@@@@@@@@@@@@@@@@@@@@@@++++++++++++++++++++++++++++++++@@@@@@@@@@@@@@@@@@@@@@@+++++++++....   ",
"       ..+++++++@@@@@@@@@@@@@@@@@@@@@@@@@@@@@@@@@@@@@@@++++++++++++++++@@@@@@@@@@@@@@@@@@@@@@@@@@@@@@++++++++++++....   ",
"       ..+++++++@@@@@@@@@@@@@@@@@@@@@@@@@@@@@@@@@@@@@@@++++++++++++++++@@@@@@@@@@@@@@@@@@@@@@@@@@@@@@++++++++++++....   ",
"       ..@@@@+++@@@@@@@@@@@@@@@@@@@@@@@@@@@@@@@@@@@@@@@@@@@@@@@@@@@@@@@@@@@@@@@@@@@@@@@@@@@@@@@@@+++++++@@@++++##....   ",
"       ..@@@@+++@@@@@@@@@@@@@@@@@@@@@@@@@@@@@@@@@@@@@@@@@@@@@@@@@@@@@@@@@@@@@@@@@@@@@@@@@@@@@@@@@+++++++@@@++++##....   ",
"       ..@@@@+++@@@@@@@@@@@@@@@@@@@@@@@@@@@@@@@@@@@@@@@@@@@@@@@@@@@@@@@@@@@@@@@@@@@@@@@@@@@@@@@@@+++++++@@@++++##....   ",
"       ..@@@@@@@+++@@@@@@@@@@@@@@@@@@@@@@@@@@@@@@@@@@@@@@@@@@@@@@@@@@@@@@@@@@@@@@@@@@@@@@@@@@@@@@++++@@@@@@##########...",
"       ..@@@@@@@+++@@@@@@@@@@@@@@@@@@@@@@@@@@@@@@@@@@@@@@@@@@@@@@@@@@@@@@@@@@@@@@@@@@@@@@@@@@@@@@++++@@@@@@##########...",
"   ....++@@@@@@@+++++++@@@@@@@@@@@@@@@@@@@@@@@@@@@@@@@@@@@@@@@@@@@@@@@@@@@@@@@@@@@@@@@@@@@@@@@+++++++@@@@@@##########...",
"   ....++@@@@@@@+++++++@@@@@@@@@@@@@@@@@@@@@@@@@@@@@@@@@@@@@@@@@@@@@@@@@@@@@@@@@@@@@@@@@@@@@@@+++++++@@@@@@##########...",
"   ....++@@@@@@@+++++++@@@@@@@@@@@@@@@@@@@@@@@@@@@@@@@@@@@@@@@@@@@@@@@@@@@@@@@@@@@@@@@@@@@@@@@+++++++@@@@@@##########...",
"   ....++@@@@@@@@@@+++++++@@@@@@@@@@@@@@@@@@@@@@@@@@@@@@@@@@@@@@@@@@@@@@@@@@@@@@@@@@@@@@@@+++++++@@@@@@@###++++######...",
"   ....++@@@@@@@@@@+++++++@@@@@@@@@@@@@@@@@@@@@@@@@@@@@@@@@@@@@@@@@@@@@@@@@@@@@@@@@@@@@@@@+++++++@@@@@@@###++++######...",
"   ....++@@@@@@@@@@@@@@+++++++++@@@@@@@@@@@@@@@@@@@@@@@@@@@@@@@@@@@@@@@@@@@@@@@@@@@@@+++++++++@@@@@@@@@@+++++++######...",
"   ....++@@@@@@@@@@@@@@+++++++++@@@@@@@@@@@@@@@@@@@@@@@@@@@@@@@@@@@@@@@@@@@@@@@@@@@@@+++++++++@@@@@@@@@@+++++++######...",
"   ....++++++@@@@@@@@@@@@@++++++++++++++++++++@@@@@@@@@@@@@@@@@@@@@@@+++++++++++++++++++++@@@@@@@@@@@++++++##########...",
"   ....++++++@@@@@@@@@@@@@++++++++++++++++++++@@@@@@@@@@@@@@@@@@@@@@@+++++++++++++++++++++@@@@@@@@@@@++++++##########...",
"   ....++++++@@@@@@@@@@@@@++++++++++++++++++++@@@@@@@@@@@@@@@@@@@@@@@+++++++++++++++++++++@@@@@@@@@@@++++++##########...",
"   ....##++++@@@@@@@@@@@@@@@@@@@+++++++++++++++++++++++++++++++++++++++++++++++++@@@@@@@@@@@@@@@@++++++++++##########...",
"   ....##++++@@@@@@@@@@@@@@@@@@@+++++++++++++++++++++++++++++++++++++++++++++++++@@@@@@@@@@@@@@@@++++++++++##########...",
"   ....##+++++++@@@@@@@@@@@@@@@@@@@@@@@@@@++++++++++++++++++++++++++++++++++++++++++++++++++++++++++++++###++++######...",
"   ....##+++++++@@@@@@@@@@@@@@@@@@@@@@@@@@++++++++++++++++++++++++++++++++++++++++++++++++++++++++++++++###++++######...",
"   ....##+++++++@@@@@@@@@@@@@@@@@@@@@@@@@@++++++++++++++++++++++++++++++++++++++++++++++++++++++++++++++###++++######...",
"   ....######++++++@@@@@@@@@@@@@@@@@@@@@@@@@@@@@@@@@@@@@@@@@@@@@@@@@@@@@@@@@@@+++++++++++++++++++++++######++++##....   ",
"   ....######++++++@@@@@@@@@@@@@@@@@@@@@@@@@@@@@@@@@@@@@@@@@@@@@@@@@@@@@@@@@@@+++++++++++++++++++++++######++++##....   ",
"   ....$$##########+++++++++++@@@@@@@@@++++++++++++@@@@@@@@@@@@@@@@@@@@@@@+++++++++++++++++++++++####++++++$$$$..       ",
"   ....$$##########+++++++++++@@@@@@@@@++++++++++++@@@@@@@@@@@@@@@@@@@@@@@+++++++++++++++++++++++####++++++$$$$..       ",
"...$$$$$$####++++++####++++++++++++++++++++++++++++++++@@@@@@@@@@@@@@@@+++++++++++++++++++++++++++++++++#######$$....   ",
"...$$$$$$####++++++####++++++++++++++++++++++++++++++++@@@@@@@@@@@@@@@@+++++++++++++++++++++++++++++++++#######$$....   ",
"...$$$$$$####++++++####++++++++++++++++++++++++++++++++@@@@@@@@@@@@@@@@+++++++++++++++++++++++++++++++++#######$$....   ",
"...$$$$$$#######+++++++#######+++++++++++++++++++++++++++++++++++++++++++++++++++++++++++++++++++++++######$$$$##$$$$...",
"...$$$$$$#######+++++++#######+++++++++++++++++++++++++++++++++++++++++++++++++++++++++++++++++++++++######$$$$##$$$$...",
"...$$$$$$$$$$###++++++++++++++#####+++++++++++++++++++++++++++++++++++++++++++++++++++++###################$$$$##$$$$...",
"...$$$$$$$$$$###++++++++++++++#####+++++++++++++++++++++++++++++++++++++++++++++++++++++###################$$$$##$$$$...",
"...$$$$$$$$$$###++++++++++++++#####+++++++++++++++++++++++++++++++++++++++++++++++++++++###################$$$$##$$$$...",
"   ....$$$$$$$$$###+++++++++++############+++++++++++++++++++++++++++++#################################$$$######$$$$...",
"   ....$$$$$$$$$###+++++++++++############+++++++++++++++++++++++++++++#################################$$$######$$$$...",
"       .........$$$#######+++++++++#######################################++++################$$$##############$$$$$$...",
"       .........$$$#######+++++++++#######################################++++################$$$##############$$$$$$...",
"             ...$$$###########################################++++++++++++################$$$$$$$$$$$$$$$$$$$$$$$....   ",
"             ...$$$###########################################++++++++++++################$$$$$$$$$$$$$$$$$$$$$$$....   ",
"             ...$$$###########################################++++++++++++################$$$$$$$$$$$$$$$$$$$$$$$....   ",
"             ...$$$####################################++++++++++++++################$$$$$$$$$$$$$$$$$$$.........       ",
"             ...$$$####################################++++++++++++++################$$$$$$$$$$$$$$$$$$$.........       ",
"             ...$$$$$$$$$$#########$$$$$$$$$$$#########################$$$$$$$$$$$$$$$$$$$$$$$$$$$$$$$$$...             ",
"             ...$$$$$$$$$$#########$$$$$$$$$$$#########################$$$$$$$$$$$$$$$$$$$$$$$$$$$$$$$$$...             ",
"             ...$$$$$$$$$$#########$$$$$$$$$$$#########################$$$$$$$$$$$$$$$$$$$$$$$$$$$$$$$$$...             ",
"             ...$$$$$$$$$$$$$$$$$$$$$$$$$$####$$$$$##################################$$$$$$$$$$$$$$$$$$$...             ",
"             ...$$$$$$$$$$$$$$$$$$$$$$$$$$####$$$$$##################################$$$$$$$$$$$$$$$$$$$...             ",
"                .......$$$$$$$$$$$$$$$$$$$$$$$################################$$$$$$$$$$$$$$$$$$$$$$$...                ",
"                .......$$$$$$$$$$$$$$$$$$$$$$$################################$$$$$$$$$$$$$$$$$$$$$$$...                ",
"                       .......................$$$$$$$$$$$$###########$$$$$$$$$$$$....................                   ",
"                       .......................$$$$$$$$$$$$###########$$$$$$$$$$$$....................                   ",
"                       .......................$$$$$$$$$$$$###########$$$$$$$$$$$$....................                   ",
"                                          %%%%...$$$$$$$$$$$$$$$$$$$$$$$$$$$$$...%%%%                                   ",
"                                          %%%%...$$$$$$$$$$$$$$$$$$$$$$$$$$$$$...%%%%                                   ",
"                                              %%%..$$$$$$$$$$$$$$$$$$$$$$$....%%%                                       ",
"                                              %%%..$$$$$$$$$$$$$$$$$$$$$$$....%%%                                       ",
"                                              %%%..$$$$$$$$$$$$$$$$$$$$$$$....%%%                                       ",
"                          $$$$                %%%&&.......................&&&&%%%                                       ",
"                          $$$$                %%%&&.......................&&&&%%%                                       ",
"                          $$$$            %%%%***&&&&&&***&&&&*********&&&&&&&&&&%%%%                      $$$$         ",
"                          $$$$            %%%%***&&&&&&***&&&&*********&&&&&&&&&&%%%%                      $$$$         ",
"                $$$    $$$$$$$         %%%*******&&&&&&&&&&&&&*********&&&&&&&&&&&&&&%%%                   $$$$         ",
"                $$$    $$$$$$$         %%%*******&&&&&&&&&&&&&*********&&&&&&&&&&&&&&%%%                   $$$$         ",
"                $$$    $$$$$$$         %%%*******&&&&&&&&&&&&&*********&&&&&&&&&&&&&&%%%                   $$$$         ",
"                $$$    $$$$$$$     %%%%*******&&&**&&&&&&&&&&&***&&&&**&&&&&&&&&&&&&&***%%    $$$          $$$$         ",
"                $$$    $$$$$$$     %%%%*******&&&**&&&&&&&&&&&***&&&&**&&&&&&&&&&&&&&***%%    $$$          $$$$         ",
"                $$$    $$$      %%%*******&&&&*****&&&&&&&****&&&&&&&**&&&&&&&&&&&&&&*****%%%%$$$$$$$                   ",
"                $$$    $$$      %%%*******&&&&*****&&&&&&&****&&&&&&&**&&&&&&&&&&&&&&*****%%%%$$$$$$$                   ",
"                $$$    $$$      %%%*******&&&&*****&&&&&&&****&&&&&&&**&&&&&&&&&&&&&&*****%%%%$$$$$$$                   ",
"                $$$           %%*******$$$$$$$***&&&&&&&&&$$$$&&&&&&&*****&&&&&&&$$$$*********%%%$$$$                   ",
"                $$$           %%*******$$$$$$$***&&&&&&&&&$$$$&&&&&&&*****&&&&&&&$$$$*********%%%$$$$                   ",
"                              %%%%%$$$$$$$$$$$************$$$$***&&&&*****&&&&&&&$$$$$$$%%%%%%%%%$$$$                   ",
"                              %%%%%$$$$$$$$$$$************$$$$***&&&&*****&&&&&&&$$$$$$$%%%%%%%%%$$$$                   ",
"                                   $$$$$$$*************$$$$$$$$$$*********$$$$***$$$$$$$                                ",
"                                   $$$$$$$*************$$$$$$$$$$*********$$$$***$$$$$$$                                ",
"                                   $$$$$$$*************$$$$$$$$$$*********$$$$***$$$$$$$                                ",
"                                   $$$$$$$*******%%$$$$%%%$$$$$$$%%%%*********%%%$$$$   ==                              ",
"                                   $$$$$$$*******%%$$$$%%%$$$$$$$%%%%*********%%%$$$$   ==                              ",
"                                          %%%%%%%  $$$$       $$$    %%*******%%%$$$$                                   ",
"                                          %%%%%%%  $$$$       $$$    %%*******%%%$$$$                                   ",
"                                          %%%%%%%  $$$$       $$$    %%*******%%%$$$$                                   ",
"                                          $$$$                         %%%%%%%                                          ",
"                                          $$$$                         %%%%%%%                                          "};
