/* XPM */
static char * 24 (1)_xpm[] = {
"120 120 9 1",
" 	c #C0EB70",
".	c #302C2E",
"+	c #F47E1B",
"@	c #B32D2D",
"#	c #73342E",
"$	c #EEF2AA",
"%	c #E6482E",
"&	c #F4B41B",
"*	c #A24C06",
"                                                                                                                        ",
"                                                                                                                        ",
"                                                                                                                        ",
"                                                                                                                        ",
"                                                                                                                        ",
"                                                                                                                        ",
"                                                                                                                        ",
"                                                                                                                        ",
"               ..........................................................................................               ",
"               ..........................................................................................               ",
"               ..........................................................................................               ",
"               ..........................................................................................               ",
"               ..........................................................................................               ",
"               ..........................................................................................               ",
"               ..........................................................................................               ",
"               ..........................................................................................               ",
"       ........+++++++@@@@@@@@@@@@@@@@@@@@@@@#######+++++++++++++++########@@@@@@@@@@@@@@@@@@@@@@++++++++.......        ",
"       ........+++++++@@@@@@@@@@@@@@@@@@@@@@@#######+++++++++++++++########@@@@@@@@@@@@@@@@@@@@@@++++++++.......        ",
"       ........+++++++@@@@@@@@@@@@@@@@@@@@@@@#######+++++++++++++++########@@@@@@@@@@@@@@@@@@@@@@++++++++.......        ",
"       ........+++++++@@@@@@@@@@@@@@@@@@@@@@@#######+++++++++++++++########@@@@@@@@@@@@@@@@@@@@@@++++++++.......        ",
"       ........+++++++@@@@@@@@@@@@@@@@@@@@@@@#######+++++++++++++++########@@@@@@@@@@@@@@@@@@@@@@++++++++.......        ",
"       ........+++++++@@@@@@@@@@@@@@@@@@@@@@@#######+++++++++++++++########@@@@@@@@@@@@@@@@@@@@@@++++++++.......        ",
"       ........+++++++@@@@@@@@@@@@@@@@@@@@@@@#######+++++++++++++++########@@@@@@@@@@@@@@@@@@@@@@++++++++.......        ",
"       ........+++++++@@@@@@@@@@@@@@@@@@@@@@@#######+++++++++++++++########@@@@@@@@@@@@@@@@@@@@@@++++++++.......        ",
"       ........$$$$$$$%%%%%%%%%%%%%%%%%%%%%%%#######$$$$$$$$$$$$$$$########%%%%%%%%%%%%%%%%%%%%%%$$$$$$$$.......        ",
"       ........$$$$$$$%%%%%%%%%%%%%%%%%%%%%%%#######$$$$$$$$$$$$$$$########%%%%%%%%%%%%%%%%%%%%%%$$$$$$$$.......        ",
"       ........$$$$$$$%%%%%%%%%%%%%%%%%%%%%%%#######$$$$$$$$$$$$$$$########%%%%%%%%%%%%%%%%%%%%%%$$$$$$$$.......        ",
"       ........$$$$$$$%%%%%%%%%%%%%%%%%%%%%%%#######$$$$$$$$$$$$$$$########%%%%%%%%%%%%%%%%%%%%%%$$$$$$$$.......        ",
"       ........$$$$$$$%%%%%%%%%%%%%%%%%%%%%%%#######$$$$$$$$$$$$$$$########%%%%%%%%%%%%%%%%%%%%%%$$$$$$$$.......        ",
"       ........$$$$$$$%%%%%%%%%%%%%%%%%%%%%%%#######$$$$$$$$$$$$$$$########%%%%%%%%%%%%%%%%%%%%%%$$$$$$$$.......        ",
"       ........$$$$$$$%%%%%%%%%%%%%%%%%%%%%%%#######$$$$$$$$$$$$$$$########%%%%%%%%%%%%%%%%%%%%%%$$$$$$$$.......        ",
"       ........$$$$$$$%%%%%%%%%%%%%%%%%%%%%%%#######$$$$$$$$$$$$$$$########%%%%%%%%%%%%%%%%%%%%%%$$$$$$$$.......        ",
"       ........$$$$$$$%%%%%%%%%%%%%%%%%%%%%%%#######$$$$$$$$$$$$$$$########%%%%%%%%%%%%%%%%%%%%%%$$$$$$$$.......        ",
"       ........$$$$$$$%%%%%%%%%%%%%%%%%%%%%%%#######$$$$$$$$$$$$$$$########%%%%%%%%%%%%%%%%%%%%%%$$$$$$$$.......        ",
"       ........$$$$$$$%%%%%%%%%%%%%%%%%%%%%%%#######$$$$$$$$$$$$$$$########%%%%%%%%%%%%%%%%%%%%%%$$$$$$$$.......        ",
"       ........$$$$$$$%%%%%%%%%%%%%%%%%%%%%%%#######$$$$$$$$$$$$$$$########%%%%%%%%%%%%%%%%%%%%%%$$$$$$$$.......        ",
"       ........$$$$$$$%%%%%%%%%%%%%%%%%%%%%%%#######$$$$$$$$$$$$$$$########%%%%%%%%%%%%%%%%%%%%%%$$$$$$$$.......        ",
"       ........$$$$$$$%%%%%%%%%%%%%%%%%%%%%%%#######$$$$$$$$$$$$$$$########%%%%%%%%%%%%%%%%%%%%%%$$$$$$$$.......        ",
"       ........$$$$$$$%%%%%%%%%%%%%%%%%%%%%%%#######$$$$$$$$$$$$$$$########%%%%%%%%%%%%%%%%%%%%%%$$$$$$$$.......        ",
"       ........$$$$$$$%%%%%%%%%%%%%%%%%%%%%%%#######$$$$$$$$$$$$$$$########%%%%%%%%%%%%%%%%%%%%%%$$$$$$$$.......        ",
"       ........&&&&&&&@@@@@@@@@@@@@@@@@@@@@@@#######&&&&&&&&&&&&&&&########@@@@@@@@@@@@@@@@@@@@@@&&&&&&&&.......        ",
"       ........&&&&&&&@@@@@@@@@@@@@@@@@@@@@@@#######&&&&&&&&&&&&&&&########@@@@@@@@@@@@@@@@@@@@@@&&&&&&&&.......        ",
"       ........&&&&&&&@@@@@@@@@@@@@@@@@@@@@@@#######&&&&&&&&&&&&&&&########@@@@@@@@@@@@@@@@@@@@@@&&&&&&&&.......        ",
"       ........&&&&&&&@@@@@@@@@@@@@@@@@@@@@@@#######&&&&&&&&&&&&&&&########@@@@@@@@@@@@@@@@@@@@@@&&&&&&&&.......        ",
"       ........&&&&&&&@@@@@@@@@@@@@@@@@@@@@@@#######&&&&&&&&&&&&&&&########@@@@@@@@@@@@@@@@@@@@@@&&&&&&&&.......        ",
"       ........&&&&&&&@@@@@@@@@@@@@@@@@@@@@@@#######&&&&&&&&&&&&&&&########@@@@@@@@@@@@@@@@@@@@@@&&&&&&&&.......        ",
"       ........&&&&&&&@@@@@@@@@@@@@@@@@@@@@@@#######&&&&&&&&&&&&&&&########@@@@@@@@@@@@@@@@@@@@@@&&&&&&&&.......        ",
"       ........&&&&&&&@@@@@@@@@@@@@@@@@@@@@@@#######&&&&&&&&&&&&&&&########@@@@@@@@@@@@@@@@@@@@@@&&&&&&&&.......        ",
"       ........&&&&&&&@@@@@@@@@@@@@@@@@@@@@@@#######&&&&&&&&&&&&&&&########@@@@@@@@@@@@@@@@@@@@@@&&&&&&&&.......        ",
"       ........&&&&&&&@@@@@@@@@@@@@@@@@@@@@@@#######&&&&&&&&&&&&&&&########@@@@@@@@@@@@@@@@@@@@@@&&&&&&&&.......        ",
"       ........&&&&&&&@@@@@@@@@@@@@@@@@@@@@@@#######&&&&&&&&&&&&&&&########@@@@@@@@@@@@@@@@@@@@@@&&&&&&&&.......        ",
"       ........&&&&&&&@@@@@@@@@@@@@@@@@@@@@@@#######&&&&&&&&&&&&&&&########@@@@@@@@@@@@@@@@@@@@@@&&&&&&&&.......        ",
"       ........&&&&&&&@@@@@@@@@@@@@@@@@@@@@@@#######&&&&&&&&&&&&&&&########@@@@@@@@@@@@@@@@@@@@@@&&&&&&&&.......        ",
"       ........&&&&&&&@@@@@@@@@@@@@@@@@@@@@@@#######&&&&&&&&&&&&&&&########@@@@@@@@@@@@@@@@@@@@@@&&&&&&&&.......        ",
"       ........&&&&&&&@@@@@@@@@@@@@@@@@@@@@@@#######&&&&&&&&&&&&&&&########@@@@@@@@@@@@@@@@@@@@@@&&&&&&&&.......        ",
"       ........&&&&&&&@@@@@@@@@@@@@@@@@@@@@@@#######&&&&&&&&&&&&&&&########@@@@@@@@@@@@@@@@@@@@@@&&&&&&&&.......        ",
"       ........+++++++@@@@@@@@@@@@@@@@@@@@@@@#######$$$$$$$$$$$$$$$########@@@@@@@@@@@@@@@@@@@@@@++++++++.......        ",
"       ........+++++++@@@@@@@@@@@@@@@@@@@@@@@#######$$$$$$$$$$$$$$$########@@@@@@@@@@@@@@@@@@@@@@++++++++.......        ",
"       ........+++++++@@@@@@@@@@@@@@@@@@@@@@@#######$$$$$$$$$$$$$$$########@@@@@@@@@@@@@@@@@@@@@@++++++++.......        ",
"       ........+++++++@@@@@@@@@@@@@@@@@@@@@@@#######$$$$$$$$$$$$$$$########@@@@@@@@@@@@@@@@@@@@@@++++++++.......        ",
"       ........+++++++@@@@@@@@@@@@@@@@@@@@@@@#######$$$$$$$$$$$$$$$########@@@@@@@@@@@@@@@@@@@@@@++++++++.......        ",
"       ........+++++++@@@@@@@@@@@@@@@@@@@@@@@#######$$$$$$$$$$$$$$$########@@@@@@@@@@@@@@@@@@@@@@++++++++.......        ",
"       ........+++++++@@@@@@@@@@@@@@@@@@@@@@@#######$$$$$$$$$$$$$$$########@@@@@@@@@@@@@@@@@@@@@@++++++++.......        ",
"       ........+++++++@@@@@@@@@@@@@@@@@@@@@@@#######$$$$$$$$$$$$$$$########@@@@@@@@@@@@@@@@@@@@@@++++++++.......        ",
"       ........%%%%%%%#######################$$$$$$$...............&&&&&&&&######################%%%%%%%%.......        ",
"       ........%%%%%%%#######################$$$$$$$...............&&&&&&&&######################%%%%%%%%.......        ",
"       ........%%%%%%%#######################$$$$$$$...............&&&&&&&&######################%%%%%%%%.......        ",
"       ........%%%%%%%#######################$$$$$$$...............&&&&&&&&######################%%%%%%%%.......        ",
"       ........%%%%%%%#######################$$$$$$$...............&&&&&&&&######################%%%%%%%%.......        ",
"       ........%%%%%%%#######################$$$$$$$...............&&&&&&&&######################%%%%%%%%.......        ",
"       ........%%%%%%%#######################$$$$$$$...............&&&&&&&&######################%%%%%%%%.......        ",
"       ........%%%%%%%#######################$$$$$$$...............&&&&&&&&######################%%%%%%%%.......        ",
"       ......................................+++++++...............++++++++.....................................        ",
"       ......................................+++++++...............++++++++.....................................        ",
"       ......................................+++++++...............++++++++.....................................        ",
"       ......................................+++++++...............++++++++.....................................        ",
"       ......................................+++++++...............++++++++.....................................        ",
"       ......................................+++++++...............++++++++.....................................        ",
"       ......................................+++++++...............++++++++.....................................        ",
"       ......................................+++++++...............++++++++.....................................        ",
"       ........#####################################***************######################################.......        ",
"       ........#####################################***************######################################.......        ",
"       ........#####################################***************######################################.......        ",
"       ........#####################################***************######################################.......        ",
"       ........#####################################***************######################################.......        ",
"       ........#####################################***************######################################.......        ",
"       ........#####################################***************######################################.......        ",
"       ........#####################################***************######################################.......        ",
"       ........##########################################################################################.......        ",
"       ........##########################################################################################.......        ",
"       ........##########################################################################################.......        ",
"       ........##########################################################################################.......        ",
"       ........##########################################################################################.......        ",
"       ........##########################################################################################.......        ",
"       ........##########################################################################################.......        ",
"       ........##########################################################################################.......        ",
"       ........+++++++###########################################################################++++++++.......        ",
"       ........+++++++###########################################################################++++++++.......        ",
"       ........+++++++###########################################################################++++++++.......        ",
"       ........+++++++###########################################################################++++++++.......        ",
"       ........+++++++###########################################################################++++++++.......        ",
"       ........+++++++###########################################################################++++++++.......        ",
"       ........+++++++###########################################################################++++++++.......        ",
"       ........+++++++###########################################################################++++++++.......        ",
"       ........&&&&&&&++++++++############################################################+++++++&&&&&&&&.......        ",
"       ........&&&&&&&++++++++############################################################+++++++&&&&&&&&.......        ",
"       ........&&&&&&&++++++++############################################################+++++++&&&&&&&&.......        ",
"       ........&&&&&&&++++++++############################################################+++++++&&&&&&&&.......        ",
"       ........&&&&&&&++++++++############################################################+++++++&&&&&&&&.......        ",
"       ........&&&&&&&++++++++############################################################+++++++&&&&&&&&.......        ",
"       ........&&&&&&&++++++++############################################################+++++++&&&&&&&&.......        ",
"       ........&&&&&&&++++++++############################################################+++++++&&&&&&&&.......        ",
"               ..........................................................................................               ",
"               ..........................................................................................               ",
"               ..........................................................................................               ",
"               ..........................................................................................               ",
"               ..........................................................................................               ",
"               ..........................................................................................               ",
"               ..........................................................................................               ",
"               ..........................................................................................               "};
